<?xml version="1.0" encoding="utf-8" standalone="no"?>
<!DOCTYPE svg PUBLIC "-//W3C//DTD SVG 1.1//EN"
  "http://www.w3.org/Graphics/SVG/1.1/DTD/svg11.dtd">
<svg xmlns:xlink="http://www.w3.org/1999/xlink" width="432pt" height="288pt" viewBox="0 0 432 288" xmlns="http://www.w3.org/2000/svg" version="1.1">
 <metadata>
  <rdf:RDF xmlns:dc="http://purl.org/dc/elements/1.1/" xmlns:cc="http://creativecommons.org/ns#" xmlns:rdf="http://www.w3.org/1999/02/22-rdf-syntax-ns#">
   <cc:Work>
    <dc:type rdf:resource="http://purl.org/dc/dcmitype/StillImage"/>
    <dc:date>2023-06-16T11:09:17.266658</dc:date>
    <dc:format>image/svg+xml</dc:format>
    <dc:creator>
     <cc:Agent>
      <dc:title>Matplotlib v3.5.1, https://matplotlib.org/</dc:title>
     </cc:Agent>
    </dc:creator>
   </cc:Work>
  </rdf:RDF>
 </metadata>
 <defs>
  <style type="text/css">*{stroke-linejoin: round; stroke-linecap: butt}</style>
 </defs>
 <g id="figure_1">
  <g id="patch_1">
   <path d="M 0 288 
L 432 288 
L 432 0 
L 0 0 
z
" style="fill: #ffffff"/>
  </g>
  <g id="axes_1">
   <g id="patch_2">
    <path d="M 54 252 
L 388.8 252 
L 388.8 34.56 
L 54 34.56 
z
" style="fill: #ffffff"/>
   </g>
   <g id="matplotlib.axis_1">
    <g id="xtick_1">
     <g id="line2d_1">
      <path d="M 77.672727 252 
L 77.672727 34.56 
" clip-path="url(#p58511128fd)" style="fill: none; stroke: #b0b0b0; stroke-width: 0.8; stroke-linecap: square"/>
     </g>
     <g id="line2d_2">
      <defs>
       <path id="m0bead5fbbc" d="M 0 0 
L 0 3.5 
" style="stroke: #000000; stroke-width: 0.8"/>
      </defs>
      <g>
       <use xlink:href="#m0bead5fbbc" x="77.672727" y="252" style="stroke: #000000; stroke-width: 0.8"/>
      </g>
     </g>
     <g id="text_1">
      <!-- 14.5 -->
      <g transform="translate(66.539915 266.598437)scale(0.1 -0.1)">
       <defs>
        <path id="DejaVuSans-31" d="M 794 531 
L 1825 531 
L 1825 4091 
L 703 3866 
L 703 4441 
L 1819 4666 
L 2450 4666 
L 2450 531 
L 3481 531 
L 3481 0 
L 794 0 
L 794 531 
z
" transform="scale(0.015625)"/>
        <path id="DejaVuSans-34" d="M 2419 4116 
L 825 1625 
L 2419 1625 
L 2419 4116 
z
M 2253 4666 
L 3047 4666 
L 3047 1625 
L 3713 1625 
L 3713 1100 
L 3047 1100 
L 3047 0 
L 2419 0 
L 2419 1100 
L 313 1100 
L 313 1709 
L 2253 4666 
z
" transform="scale(0.015625)"/>
        <path id="DejaVuSans-2e" d="M 684 794 
L 1344 794 
L 1344 0 
L 684 0 
L 684 794 
z
" transform="scale(0.015625)"/>
        <path id="DejaVuSans-35" d="M 691 4666 
L 3169 4666 
L 3169 4134 
L 1269 4134 
L 1269 2991 
Q 1406 3038 1543 3061 
Q 1681 3084 1819 3084 
Q 2600 3084 3056 2656 
Q 3513 2228 3513 1497 
Q 3513 744 3044 326 
Q 2575 -91 1722 -91 
Q 1428 -91 1123 -41 
Q 819 9 494 109 
L 494 744 
Q 775 591 1075 516 
Q 1375 441 1709 441 
Q 2250 441 2565 725 
Q 2881 1009 2881 1497 
Q 2881 1984 2565 2268 
Q 2250 2553 1709 2553 
Q 1456 2553 1204 2497 
Q 953 2441 691 2322 
L 691 4666 
z
" transform="scale(0.015625)"/>
       </defs>
       <use xlink:href="#DejaVuSans-31"/>
       <use xlink:href="#DejaVuSans-34" x="63.623047"/>
       <use xlink:href="#DejaVuSans-2e" x="127.246094"/>
       <use xlink:href="#DejaVuSans-35" x="159.033203"/>
      </g>
     </g>
    </g>
    <g id="xtick_2">
     <g id="line2d_3">
      <path d="M 119.945455 252 
L 119.945455 34.56 
" clip-path="url(#p58511128fd)" style="fill: none; stroke: #b0b0b0; stroke-width: 0.8; stroke-linecap: square"/>
     </g>
     <g id="line2d_4">
      <g>
       <use xlink:href="#m0bead5fbbc" x="119.945455" y="252" style="stroke: #000000; stroke-width: 0.8"/>
      </g>
     </g>
     <g id="text_2">
      <!-- 15.0 -->
      <g transform="translate(108.812642 266.598437)scale(0.1 -0.1)">
       <defs>
        <path id="DejaVuSans-30" d="M 2034 4250 
Q 1547 4250 1301 3770 
Q 1056 3291 1056 2328 
Q 1056 1369 1301 889 
Q 1547 409 2034 409 
Q 2525 409 2770 889 
Q 3016 1369 3016 2328 
Q 3016 3291 2770 3770 
Q 2525 4250 2034 4250 
z
M 2034 4750 
Q 2819 4750 3233 4129 
Q 3647 3509 3647 2328 
Q 3647 1150 3233 529 
Q 2819 -91 2034 -91 
Q 1250 -91 836 529 
Q 422 1150 422 2328 
Q 422 3509 836 4129 
Q 1250 4750 2034 4750 
z
" transform="scale(0.015625)"/>
       </defs>
       <use xlink:href="#DejaVuSans-31"/>
       <use xlink:href="#DejaVuSans-35" x="63.623047"/>
       <use xlink:href="#DejaVuSans-2e" x="127.246094"/>
       <use xlink:href="#DejaVuSans-30" x="159.033203"/>
      </g>
     </g>
    </g>
    <g id="xtick_3">
     <g id="line2d_5">
      <path d="M 162.218182 252 
L 162.218182 34.56 
" clip-path="url(#p58511128fd)" style="fill: none; stroke: #b0b0b0; stroke-width: 0.8; stroke-linecap: square"/>
     </g>
     <g id="line2d_6">
      <g>
       <use xlink:href="#m0bead5fbbc" x="162.218182" y="252" style="stroke: #000000; stroke-width: 0.8"/>
      </g>
     </g>
     <g id="text_3">
      <!-- 15.5 -->
      <g transform="translate(151.085369 266.598437)scale(0.1 -0.1)">
       <use xlink:href="#DejaVuSans-31"/>
       <use xlink:href="#DejaVuSans-35" x="63.623047"/>
       <use xlink:href="#DejaVuSans-2e" x="127.246094"/>
       <use xlink:href="#DejaVuSans-35" x="159.033203"/>
      </g>
     </g>
    </g>
    <g id="xtick_4">
     <g id="line2d_7">
      <path d="M 204.490909 252 
L 204.490909 34.56 
" clip-path="url(#p58511128fd)" style="fill: none; stroke: #b0b0b0; stroke-width: 0.8; stroke-linecap: square"/>
     </g>
     <g id="line2d_8">
      <g>
       <use xlink:href="#m0bead5fbbc" x="204.490909" y="252" style="stroke: #000000; stroke-width: 0.8"/>
      </g>
     </g>
     <g id="text_4">
      <!-- 16.0 -->
      <g transform="translate(193.358097 266.598437)scale(0.1 -0.1)">
       <defs>
        <path id="DejaVuSans-36" d="M 2113 2584 
Q 1688 2584 1439 2293 
Q 1191 2003 1191 1497 
Q 1191 994 1439 701 
Q 1688 409 2113 409 
Q 2538 409 2786 701 
Q 3034 994 3034 1497 
Q 3034 2003 2786 2293 
Q 2538 2584 2113 2584 
z
M 3366 4563 
L 3366 3988 
Q 3128 4100 2886 4159 
Q 2644 4219 2406 4219 
Q 1781 4219 1451 3797 
Q 1122 3375 1075 2522 
Q 1259 2794 1537 2939 
Q 1816 3084 2150 3084 
Q 2853 3084 3261 2657 
Q 3669 2231 3669 1497 
Q 3669 778 3244 343 
Q 2819 -91 2113 -91 
Q 1303 -91 875 529 
Q 447 1150 447 2328 
Q 447 3434 972 4092 
Q 1497 4750 2381 4750 
Q 2619 4750 2861 4703 
Q 3103 4656 3366 4563 
z
" transform="scale(0.015625)"/>
       </defs>
       <use xlink:href="#DejaVuSans-31"/>
       <use xlink:href="#DejaVuSans-36" x="63.623047"/>
       <use xlink:href="#DejaVuSans-2e" x="127.246094"/>
       <use xlink:href="#DejaVuSans-30" x="159.033203"/>
      </g>
     </g>
    </g>
    <g id="xtick_5">
     <g id="line2d_9">
      <path d="M 246.763636 252 
L 246.763636 34.56 
" clip-path="url(#p58511128fd)" style="fill: none; stroke: #b0b0b0; stroke-width: 0.8; stroke-linecap: square"/>
     </g>
     <g id="line2d_10">
      <g>
       <use xlink:href="#m0bead5fbbc" x="246.763636" y="252" style="stroke: #000000; stroke-width: 0.8"/>
      </g>
     </g>
     <g id="text_5">
      <!-- 16.5 -->
      <g transform="translate(235.630824 266.598437)scale(0.1 -0.1)">
       <use xlink:href="#DejaVuSans-31"/>
       <use xlink:href="#DejaVuSans-36" x="63.623047"/>
       <use xlink:href="#DejaVuSans-2e" x="127.246094"/>
       <use xlink:href="#DejaVuSans-35" x="159.033203"/>
      </g>
     </g>
    </g>
    <g id="xtick_6">
     <g id="line2d_11">
      <path d="M 289.036364 252 
L 289.036364 34.56 
" clip-path="url(#p58511128fd)" style="fill: none; stroke: #b0b0b0; stroke-width: 0.8; stroke-linecap: square"/>
     </g>
     <g id="line2d_12">
      <g>
       <use xlink:href="#m0bead5fbbc" x="289.036364" y="252" style="stroke: #000000; stroke-width: 0.8"/>
      </g>
     </g>
     <g id="text_6">
      <!-- 17.0 -->
      <g transform="translate(277.903551 266.598437)scale(0.1 -0.1)">
       <defs>
        <path id="DejaVuSans-37" d="M 525 4666 
L 3525 4666 
L 3525 4397 
L 1831 0 
L 1172 0 
L 2766 4134 
L 525 4134 
L 525 4666 
z
" transform="scale(0.015625)"/>
       </defs>
       <use xlink:href="#DejaVuSans-31"/>
       <use xlink:href="#DejaVuSans-37" x="63.623047"/>
       <use xlink:href="#DejaVuSans-2e" x="127.246094"/>
       <use xlink:href="#DejaVuSans-30" x="159.033203"/>
      </g>
     </g>
    </g>
    <g id="xtick_7">
     <g id="line2d_13">
      <path d="M 331.309091 252 
L 331.309091 34.56 
" clip-path="url(#p58511128fd)" style="fill: none; stroke: #b0b0b0; stroke-width: 0.8; stroke-linecap: square"/>
     </g>
     <g id="line2d_14">
      <g>
       <use xlink:href="#m0bead5fbbc" x="331.309091" y="252" style="stroke: #000000; stroke-width: 0.8"/>
      </g>
     </g>
     <g id="text_7">
      <!-- 17.5 -->
      <g transform="translate(320.176278 266.598437)scale(0.1 -0.1)">
       <use xlink:href="#DejaVuSans-31"/>
       <use xlink:href="#DejaVuSans-37" x="63.623047"/>
       <use xlink:href="#DejaVuSans-2e" x="127.246094"/>
       <use xlink:href="#DejaVuSans-35" x="159.033203"/>
      </g>
     </g>
    </g>
    <g id="xtick_8">
     <g id="line2d_15">
      <path d="M 373.581818 252 
L 373.581818 34.56 
" clip-path="url(#p58511128fd)" style="fill: none; stroke: #b0b0b0; stroke-width: 0.8; stroke-linecap: square"/>
     </g>
     <g id="line2d_16">
      <g>
       <use xlink:href="#m0bead5fbbc" x="373.581818" y="252" style="stroke: #000000; stroke-width: 0.8"/>
      </g>
     </g>
     <g id="text_8">
      <!-- 18.0 -->
      <g transform="translate(362.449006 266.598437)scale(0.1 -0.1)">
       <defs>
        <path id="DejaVuSans-38" d="M 2034 2216 
Q 1584 2216 1326 1975 
Q 1069 1734 1069 1313 
Q 1069 891 1326 650 
Q 1584 409 2034 409 
Q 2484 409 2743 651 
Q 3003 894 3003 1313 
Q 3003 1734 2745 1975 
Q 2488 2216 2034 2216 
z
M 1403 2484 
Q 997 2584 770 2862 
Q 544 3141 544 3541 
Q 544 4100 942 4425 
Q 1341 4750 2034 4750 
Q 2731 4750 3128 4425 
Q 3525 4100 3525 3541 
Q 3525 3141 3298 2862 
Q 3072 2584 2669 2484 
Q 3125 2378 3379 2068 
Q 3634 1759 3634 1313 
Q 3634 634 3220 271 
Q 2806 -91 2034 -91 
Q 1263 -91 848 271 
Q 434 634 434 1313 
Q 434 1759 690 2068 
Q 947 2378 1403 2484 
z
M 1172 3481 
Q 1172 3119 1398 2916 
Q 1625 2713 2034 2713 
Q 2441 2713 2670 2916 
Q 2900 3119 2900 3481 
Q 2900 3844 2670 4047 
Q 2441 4250 2034 4250 
Q 1625 4250 1398 4047 
Q 1172 3844 1172 3481 
z
" transform="scale(0.015625)"/>
       </defs>
       <use xlink:href="#DejaVuSans-31"/>
       <use xlink:href="#DejaVuSans-38" x="63.623047"/>
       <use xlink:href="#DejaVuSans-2e" x="127.246094"/>
       <use xlink:href="#DejaVuSans-30" x="159.033203"/>
      </g>
     </g>
    </g>
    <g id="text_9">
     <!-- Time, s -->
     <g transform="translate(203.383594 280.276563)scale(0.1 -0.1)">
      <defs>
       <path id="DejaVuSans-54" d="M -19 4666 
L 3928 4666 
L 3928 4134 
L 2272 4134 
L 2272 0 
L 1638 0 
L 1638 4134 
L -19 4134 
L -19 4666 
z
" transform="scale(0.015625)"/>
       <path id="DejaVuSans-69" d="M 603 3500 
L 1178 3500 
L 1178 0 
L 603 0 
L 603 3500 
z
M 603 4863 
L 1178 4863 
L 1178 4134 
L 603 4134 
L 603 4863 
z
" transform="scale(0.015625)"/>
       <path id="DejaVuSans-6d" d="M 3328 2828 
Q 3544 3216 3844 3400 
Q 4144 3584 4550 3584 
Q 5097 3584 5394 3201 
Q 5691 2819 5691 2113 
L 5691 0 
L 5113 0 
L 5113 2094 
Q 5113 2597 4934 2840 
Q 4756 3084 4391 3084 
Q 3944 3084 3684 2787 
Q 3425 2491 3425 1978 
L 3425 0 
L 2847 0 
L 2847 2094 
Q 2847 2600 2669 2842 
Q 2491 3084 2119 3084 
Q 1678 3084 1418 2786 
Q 1159 2488 1159 1978 
L 1159 0 
L 581 0 
L 581 3500 
L 1159 3500 
L 1159 2956 
Q 1356 3278 1631 3431 
Q 1906 3584 2284 3584 
Q 2666 3584 2933 3390 
Q 3200 3197 3328 2828 
z
" transform="scale(0.015625)"/>
       <path id="DejaVuSans-65" d="M 3597 1894 
L 3597 1613 
L 953 1613 
Q 991 1019 1311 708 
Q 1631 397 2203 397 
Q 2534 397 2845 478 
Q 3156 559 3463 722 
L 3463 178 
Q 3153 47 2828 -22 
Q 2503 -91 2169 -91 
Q 1331 -91 842 396 
Q 353 884 353 1716 
Q 353 2575 817 3079 
Q 1281 3584 2069 3584 
Q 2775 3584 3186 3129 
Q 3597 2675 3597 1894 
z
M 3022 2063 
Q 3016 2534 2758 2815 
Q 2500 3097 2075 3097 
Q 1594 3097 1305 2825 
Q 1016 2553 972 2059 
L 3022 2063 
z
" transform="scale(0.015625)"/>
       <path id="DejaVuSans-2c" d="M 750 794 
L 1409 794 
L 1409 256 
L 897 -744 
L 494 -744 
L 750 256 
L 750 794 
z
" transform="scale(0.015625)"/>
       <path id="DejaVuSans-20" transform="scale(0.015625)"/>
       <path id="DejaVuSans-73" d="M 2834 3397 
L 2834 2853 
Q 2591 2978 2328 3040 
Q 2066 3103 1784 3103 
Q 1356 3103 1142 2972 
Q 928 2841 928 2578 
Q 928 2378 1081 2264 
Q 1234 2150 1697 2047 
L 1894 2003 
Q 2506 1872 2764 1633 
Q 3022 1394 3022 966 
Q 3022 478 2636 193 
Q 2250 -91 1575 -91 
Q 1294 -91 989 -36 
Q 684 19 347 128 
L 347 722 
Q 666 556 975 473 
Q 1284 391 1588 391 
Q 1994 391 2212 530 
Q 2431 669 2431 922 
Q 2431 1156 2273 1281 
Q 2116 1406 1581 1522 
L 1381 1569 
Q 847 1681 609 1914 
Q 372 2147 372 2553 
Q 372 3047 722 3315 
Q 1072 3584 1716 3584 
Q 2034 3584 2315 3537 
Q 2597 3491 2834 3397 
z
" transform="scale(0.015625)"/>
      </defs>
      <use xlink:href="#DejaVuSans-54"/>
      <use xlink:href="#DejaVuSans-69" x="57.958984"/>
      <use xlink:href="#DejaVuSans-6d" x="85.742188"/>
      <use xlink:href="#DejaVuSans-65" x="183.154297"/>
      <use xlink:href="#DejaVuSans-2c" x="244.677734"/>
      <use xlink:href="#DejaVuSans-20" x="276.464844"/>
      <use xlink:href="#DejaVuSans-73" x="308.251953"/>
     </g>
    </g>
   </g>
   <g id="matplotlib.axis_2">
    <g id="ytick_1">
     <g id="line2d_17">
      <path d="M 54 234.624121 
L 388.8 234.624121 
" clip-path="url(#p58511128fd)" style="fill: none; stroke: #b0b0b0; stroke-width: 0.8; stroke-linecap: square"/>
     </g>
     <g id="line2d_18">
      <defs>
       <path id="m5bb99e8023" d="M 0 0 
L -3.5 0 
" style="stroke: #000000; stroke-width: 0.8"/>
      </defs>
      <g>
       <use xlink:href="#m5bb99e8023" x="54" y="234.624121" style="stroke: #000000; stroke-width: 0.8"/>
      </g>
     </g>
     <g id="text_10">
      <!-- −0.02 -->
      <g transform="translate(16.354687 238.42334)scale(0.1 -0.1)">
       <defs>
        <path id="DejaVuSans-2212" d="M 678 2272 
L 4684 2272 
L 4684 1741 
L 678 1741 
L 678 2272 
z
" transform="scale(0.015625)"/>
        <path id="DejaVuSans-32" d="M 1228 531 
L 3431 531 
L 3431 0 
L 469 0 
L 469 531 
Q 828 903 1448 1529 
Q 2069 2156 2228 2338 
Q 2531 2678 2651 2914 
Q 2772 3150 2772 3378 
Q 2772 3750 2511 3984 
Q 2250 4219 1831 4219 
Q 1534 4219 1204 4116 
Q 875 4013 500 3803 
L 500 4441 
Q 881 4594 1212 4672 
Q 1544 4750 1819 4750 
Q 2544 4750 2975 4387 
Q 3406 4025 3406 3419 
Q 3406 3131 3298 2873 
Q 3191 2616 2906 2266 
Q 2828 2175 2409 1742 
Q 1991 1309 1228 531 
z
" transform="scale(0.015625)"/>
       </defs>
       <use xlink:href="#DejaVuSans-2212"/>
       <use xlink:href="#DejaVuSans-30" x="83.789062"/>
       <use xlink:href="#DejaVuSans-2e" x="147.412109"/>
       <use xlink:href="#DejaVuSans-30" x="179.199219"/>
       <use xlink:href="#DejaVuSans-32" x="242.822266"/>
      </g>
     </g>
    </g>
    <g id="ytick_2">
     <g id="line2d_19">
      <path d="M 54 198.422081 
L 388.8 198.422081 
" clip-path="url(#p58511128fd)" style="fill: none; stroke: #b0b0b0; stroke-width: 0.8; stroke-linecap: square"/>
     </g>
     <g id="line2d_20">
      <g>
       <use xlink:href="#m5bb99e8023" x="54" y="198.422081" style="stroke: #000000; stroke-width: 0.8"/>
      </g>
     </g>
     <g id="text_11">
      <!-- 0.00 -->
      <g transform="translate(24.734375 202.2213)scale(0.1 -0.1)">
       <use xlink:href="#DejaVuSans-30"/>
       <use xlink:href="#DejaVuSans-2e" x="63.623047"/>
       <use xlink:href="#DejaVuSans-30" x="95.410156"/>
       <use xlink:href="#DejaVuSans-30" x="159.033203"/>
      </g>
     </g>
    </g>
    <g id="ytick_3">
     <g id="line2d_21">
      <path d="M 54 162.220041 
L 388.8 162.220041 
" clip-path="url(#p58511128fd)" style="fill: none; stroke: #b0b0b0; stroke-width: 0.8; stroke-linecap: square"/>
     </g>
     <g id="line2d_22">
      <g>
       <use xlink:href="#m5bb99e8023" x="54" y="162.220041" style="stroke: #000000; stroke-width: 0.8"/>
      </g>
     </g>
     <g id="text_12">
      <!-- 0.02 -->
      <g transform="translate(24.734375 166.019259)scale(0.1 -0.1)">
       <use xlink:href="#DejaVuSans-30"/>
       <use xlink:href="#DejaVuSans-2e" x="63.623047"/>
       <use xlink:href="#DejaVuSans-30" x="95.410156"/>
       <use xlink:href="#DejaVuSans-32" x="159.033203"/>
      </g>
     </g>
    </g>
    <g id="ytick_4">
     <g id="line2d_23">
      <path d="M 54 126.018 
L 388.8 126.018 
" clip-path="url(#p58511128fd)" style="fill: none; stroke: #b0b0b0; stroke-width: 0.8; stroke-linecap: square"/>
     </g>
     <g id="line2d_24">
      <g>
       <use xlink:href="#m5bb99e8023" x="54" y="126.018" style="stroke: #000000; stroke-width: 0.8"/>
      </g>
     </g>
     <g id="text_13">
      <!-- 0.04 -->
      <g transform="translate(24.734375 129.817219)scale(0.1 -0.1)">
       <use xlink:href="#DejaVuSans-30"/>
       <use xlink:href="#DejaVuSans-2e" x="63.623047"/>
       <use xlink:href="#DejaVuSans-30" x="95.410156"/>
       <use xlink:href="#DejaVuSans-34" x="159.033203"/>
      </g>
     </g>
    </g>
    <g id="ytick_5">
     <g id="line2d_25">
      <path d="M 54 89.81596 
L 388.8 89.81596 
" clip-path="url(#p58511128fd)" style="fill: none; stroke: #b0b0b0; stroke-width: 0.8; stroke-linecap: square"/>
     </g>
     <g id="line2d_26">
      <g>
       <use xlink:href="#m5bb99e8023" x="54" y="89.81596" style="stroke: #000000; stroke-width: 0.8"/>
      </g>
     </g>
     <g id="text_14">
      <!-- 0.06 -->
      <g transform="translate(24.734375 93.615178)scale(0.1 -0.1)">
       <use xlink:href="#DejaVuSans-30"/>
       <use xlink:href="#DejaVuSans-2e" x="63.623047"/>
       <use xlink:href="#DejaVuSans-30" x="95.410156"/>
       <use xlink:href="#DejaVuSans-36" x="159.033203"/>
      </g>
     </g>
    </g>
    <g id="ytick_6">
     <g id="line2d_27">
      <path d="M 54 53.613919 
L 388.8 53.613919 
" clip-path="url(#p58511128fd)" style="fill: none; stroke: #b0b0b0; stroke-width: 0.8; stroke-linecap: square"/>
     </g>
     <g id="line2d_28">
      <g>
       <use xlink:href="#m5bb99e8023" x="54" y="53.613919" style="stroke: #000000; stroke-width: 0.8"/>
      </g>
     </g>
     <g id="text_15">
      <!-- 0.08 -->
      <g transform="translate(24.734375 57.413138)scale(0.1 -0.1)">
       <use xlink:href="#DejaVuSans-30"/>
       <use xlink:href="#DejaVuSans-2e" x="63.623047"/>
       <use xlink:href="#DejaVuSans-30" x="95.410156"/>
       <use xlink:href="#DejaVuSans-38" x="159.033203"/>
      </g>
     </g>
    </g>
    <g id="text_16">
     <!-- Angular displacement, radian -->
     <g transform="translate(10.275 217.100313)rotate(-90)scale(0.1 -0.1)">
      <defs>
       <path id="DejaVuSans-41" d="M 2188 4044 
L 1331 1722 
L 3047 1722 
L 2188 4044 
z
M 1831 4666 
L 2547 4666 
L 4325 0 
L 3669 0 
L 3244 1197 
L 1141 1197 
L 716 0 
L 50 0 
L 1831 4666 
z
" transform="scale(0.015625)"/>
       <path id="DejaVuSans-6e" d="M 3513 2113 
L 3513 0 
L 2938 0 
L 2938 2094 
Q 2938 2591 2744 2837 
Q 2550 3084 2163 3084 
Q 1697 3084 1428 2787 
Q 1159 2491 1159 1978 
L 1159 0 
L 581 0 
L 581 3500 
L 1159 3500 
L 1159 2956 
Q 1366 3272 1645 3428 
Q 1925 3584 2291 3584 
Q 2894 3584 3203 3211 
Q 3513 2838 3513 2113 
z
" transform="scale(0.015625)"/>
       <path id="DejaVuSans-67" d="M 2906 1791 
Q 2906 2416 2648 2759 
Q 2391 3103 1925 3103 
Q 1463 3103 1205 2759 
Q 947 2416 947 1791 
Q 947 1169 1205 825 
Q 1463 481 1925 481 
Q 2391 481 2648 825 
Q 2906 1169 2906 1791 
z
M 3481 434 
Q 3481 -459 3084 -895 
Q 2688 -1331 1869 -1331 
Q 1566 -1331 1297 -1286 
Q 1028 -1241 775 -1147 
L 775 -588 
Q 1028 -725 1275 -790 
Q 1522 -856 1778 -856 
Q 2344 -856 2625 -561 
Q 2906 -266 2906 331 
L 2906 616 
Q 2728 306 2450 153 
Q 2172 0 1784 0 
Q 1141 0 747 490 
Q 353 981 353 1791 
Q 353 2603 747 3093 
Q 1141 3584 1784 3584 
Q 2172 3584 2450 3431 
Q 2728 3278 2906 2969 
L 2906 3500 
L 3481 3500 
L 3481 434 
z
" transform="scale(0.015625)"/>
       <path id="DejaVuSans-75" d="M 544 1381 
L 544 3500 
L 1119 3500 
L 1119 1403 
Q 1119 906 1312 657 
Q 1506 409 1894 409 
Q 2359 409 2629 706 
Q 2900 1003 2900 1516 
L 2900 3500 
L 3475 3500 
L 3475 0 
L 2900 0 
L 2900 538 
Q 2691 219 2414 64 
Q 2138 -91 1772 -91 
Q 1169 -91 856 284 
Q 544 659 544 1381 
z
M 1991 3584 
L 1991 3584 
z
" transform="scale(0.015625)"/>
       <path id="DejaVuSans-6c" d="M 603 4863 
L 1178 4863 
L 1178 0 
L 603 0 
L 603 4863 
z
" transform="scale(0.015625)"/>
       <path id="DejaVuSans-61" d="M 2194 1759 
Q 1497 1759 1228 1600 
Q 959 1441 959 1056 
Q 959 750 1161 570 
Q 1363 391 1709 391 
Q 2188 391 2477 730 
Q 2766 1069 2766 1631 
L 2766 1759 
L 2194 1759 
z
M 3341 1997 
L 3341 0 
L 2766 0 
L 2766 531 
Q 2569 213 2275 61 
Q 1981 -91 1556 -91 
Q 1019 -91 701 211 
Q 384 513 384 1019 
Q 384 1609 779 1909 
Q 1175 2209 1959 2209 
L 2766 2209 
L 2766 2266 
Q 2766 2663 2505 2880 
Q 2244 3097 1772 3097 
Q 1472 3097 1187 3025 
Q 903 2953 641 2809 
L 641 3341 
Q 956 3463 1253 3523 
Q 1550 3584 1831 3584 
Q 2591 3584 2966 3190 
Q 3341 2797 3341 1997 
z
" transform="scale(0.015625)"/>
       <path id="DejaVuSans-72" d="M 2631 2963 
Q 2534 3019 2420 3045 
Q 2306 3072 2169 3072 
Q 1681 3072 1420 2755 
Q 1159 2438 1159 1844 
L 1159 0 
L 581 0 
L 581 3500 
L 1159 3500 
L 1159 2956 
Q 1341 3275 1631 3429 
Q 1922 3584 2338 3584 
Q 2397 3584 2469 3576 
Q 2541 3569 2628 3553 
L 2631 2963 
z
" transform="scale(0.015625)"/>
       <path id="DejaVuSans-64" d="M 2906 2969 
L 2906 4863 
L 3481 4863 
L 3481 0 
L 2906 0 
L 2906 525 
Q 2725 213 2448 61 
Q 2172 -91 1784 -91 
Q 1150 -91 751 415 
Q 353 922 353 1747 
Q 353 2572 751 3078 
Q 1150 3584 1784 3584 
Q 2172 3584 2448 3432 
Q 2725 3281 2906 2969 
z
M 947 1747 
Q 947 1113 1208 752 
Q 1469 391 1925 391 
Q 2381 391 2643 752 
Q 2906 1113 2906 1747 
Q 2906 2381 2643 2742 
Q 2381 3103 1925 3103 
Q 1469 3103 1208 2742 
Q 947 2381 947 1747 
z
" transform="scale(0.015625)"/>
       <path id="DejaVuSans-70" d="M 1159 525 
L 1159 -1331 
L 581 -1331 
L 581 3500 
L 1159 3500 
L 1159 2969 
Q 1341 3281 1617 3432 
Q 1894 3584 2278 3584 
Q 2916 3584 3314 3078 
Q 3713 2572 3713 1747 
Q 3713 922 3314 415 
Q 2916 -91 2278 -91 
Q 1894 -91 1617 61 
Q 1341 213 1159 525 
z
M 3116 1747 
Q 3116 2381 2855 2742 
Q 2594 3103 2138 3103 
Q 1681 3103 1420 2742 
Q 1159 2381 1159 1747 
Q 1159 1113 1420 752 
Q 1681 391 2138 391 
Q 2594 391 2855 752 
Q 3116 1113 3116 1747 
z
" transform="scale(0.015625)"/>
       <path id="DejaVuSans-63" d="M 3122 3366 
L 3122 2828 
Q 2878 2963 2633 3030 
Q 2388 3097 2138 3097 
Q 1578 3097 1268 2742 
Q 959 2388 959 1747 
Q 959 1106 1268 751 
Q 1578 397 2138 397 
Q 2388 397 2633 464 
Q 2878 531 3122 666 
L 3122 134 
Q 2881 22 2623 -34 
Q 2366 -91 2075 -91 
Q 1284 -91 818 406 
Q 353 903 353 1747 
Q 353 2603 823 3093 
Q 1294 3584 2113 3584 
Q 2378 3584 2631 3529 
Q 2884 3475 3122 3366 
z
" transform="scale(0.015625)"/>
       <path id="DejaVuSans-74" d="M 1172 4494 
L 1172 3500 
L 2356 3500 
L 2356 3053 
L 1172 3053 
L 1172 1153 
Q 1172 725 1289 603 
Q 1406 481 1766 481 
L 2356 481 
L 2356 0 
L 1766 0 
Q 1100 0 847 248 
Q 594 497 594 1153 
L 594 3053 
L 172 3053 
L 172 3500 
L 594 3500 
L 594 4494 
L 1172 4494 
z
" transform="scale(0.015625)"/>
      </defs>
      <use xlink:href="#DejaVuSans-41"/>
      <use xlink:href="#DejaVuSans-6e" x="68.408203"/>
      <use xlink:href="#DejaVuSans-67" x="131.787109"/>
      <use xlink:href="#DejaVuSans-75" x="195.263672"/>
      <use xlink:href="#DejaVuSans-6c" x="258.642578"/>
      <use xlink:href="#DejaVuSans-61" x="286.425781"/>
      <use xlink:href="#DejaVuSans-72" x="347.705078"/>
      <use xlink:href="#DejaVuSans-20" x="388.818359"/>
      <use xlink:href="#DejaVuSans-64" x="420.605469"/>
      <use xlink:href="#DejaVuSans-69" x="484.082031"/>
      <use xlink:href="#DejaVuSans-73" x="511.865234"/>
      <use xlink:href="#DejaVuSans-70" x="563.964844"/>
      <use xlink:href="#DejaVuSans-6c" x="627.441406"/>
      <use xlink:href="#DejaVuSans-61" x="655.224609"/>
      <use xlink:href="#DejaVuSans-63" x="716.503906"/>
      <use xlink:href="#DejaVuSans-65" x="771.484375"/>
      <use xlink:href="#DejaVuSans-6d" x="833.007812"/>
      <use xlink:href="#DejaVuSans-65" x="930.419922"/>
      <use xlink:href="#DejaVuSans-6e" x="991.943359"/>
      <use xlink:href="#DejaVuSans-74" x="1055.322266"/>
      <use xlink:href="#DejaVuSans-2c" x="1094.53125"/>
      <use xlink:href="#DejaVuSans-20" x="1126.318359"/>
      <use xlink:href="#DejaVuSans-72" x="1158.105469"/>
      <use xlink:href="#DejaVuSans-61" x="1199.21875"/>
      <use xlink:href="#DejaVuSans-64" x="1260.498047"/>
      <use xlink:href="#DejaVuSans-69" x="1323.974609"/>
      <use xlink:href="#DejaVuSans-61" x="1351.757812"/>
      <use xlink:href="#DejaVuSans-6e" x="1413.037109"/>
     </g>
    </g>
   </g>
   <g id="line2d_29">
    <defs>
     <path id="m3d0b87bde5" d="M -3 0 
L 3 0 
M 0 3 
L 0 -3 
" style="stroke: #0000ff"/>
    </defs>
    <g clip-path="url(#p58511128fd)">
     <use xlink:href="#m3d0b87bde5" x="69.218182" y="194.049865" style="fill: #0000ff; stroke: #0000ff"/>
     <use xlink:href="#m3d0b87bde5" x="77.672727" y="165.693127" style="fill: #0000ff; stroke: #0000ff"/>
     <use xlink:href="#m3d0b87bde5" x="77.672727" y="133.584824" style="fill: #0000ff; stroke: #0000ff"/>
     <use xlink:href="#m3d0b87bde5" x="86.127273" y="103.795493" style="fill: #0000ff; stroke: #0000ff"/>
     <use xlink:href="#m3d0b87bde5" x="86.127273" y="78.941866" style="fill: #0000ff; stroke: #0000ff"/>
     <use xlink:href="#m3d0b87bde5" x="94.581818" y="61.054239" style="fill: #0000ff; stroke: #0000ff"/>
     <use xlink:href="#m3d0b87bde5" x="94.581818" y="58.377621" style="fill: #0000ff; stroke: #0000ff"/>
     <use xlink:href="#m3d0b87bde5" x="103.036364" y="63.836128" style="fill: #0000ff; stroke: #0000ff"/>
     <use xlink:href="#m3d0b87bde5" x="103.036364" y="83.271309" style="fill: #0000ff; stroke: #0000ff"/>
     <use xlink:href="#m3d0b87bde5" x="111.490909" y="111.505346" style="fill: #0000ff; stroke: #0000ff"/>
     <use xlink:href="#m3d0b87bde5" x="111.490909" y="141.01221" style="fill: #0000ff; stroke: #0000ff"/>
     <use xlink:href="#m3d0b87bde5" x="119.945455" y="174.384799" style="fill: #0000ff; stroke: #0000ff"/>
     <use xlink:href="#m3d0b87bde5" x="119.945455" y="201.912061" style="fill: #0000ff; stroke: #0000ff"/>
     <use xlink:href="#m3d0b87bde5" x="128.4" y="217.860021" style="fill: #0000ff; stroke: #0000ff"/>
     <use xlink:href="#m3d0b87bde5" x="128.4" y="225.228034" style="fill: #0000ff; stroke: #0000ff"/>
     <use xlink:href="#m3d0b87bde5" x="136.854545" y="221.597313" style="fill: #0000ff; stroke: #0000ff"/>
     <use xlink:href="#m3d0b87bde5" x="136.854545" y="202.27089" style="fill: #0000ff; stroke: #0000ff"/>
     <use xlink:href="#m3d0b87bde5" x="136.854545" y="172.278227" style="fill: #0000ff; stroke: #0000ff"/>
     <use xlink:href="#m3d0b87bde5" x="145.309091" y="136.154903" style="fill: #0000ff; stroke: #0000ff"/>
     <use xlink:href="#m3d0b87bde5" x="145.309091" y="101.268466" style="fill: #0000ff; stroke: #0000ff"/>
     <use xlink:href="#m3d0b87bde5" x="153.763636" y="71.599388" style="fill: #0000ff; stroke: #0000ff"/>
     <use xlink:href="#m3d0b87bde5" x="153.763636" y="56.367455" style="fill: #0000ff; stroke: #0000ff"/>
     <use xlink:href="#m3d0b87bde5" x="162.218182" y="48.695202" style="fill: #0000ff; stroke: #0000ff"/>
     <use xlink:href="#m3d0b87bde5" x="170.672727" y="49.147896" style="fill: #0000ff; stroke: #0000ff"/>
     <use xlink:href="#m3d0b87bde5" x="170.672727" y="65.900942" style="fill: #0000ff; stroke: #0000ff"/>
     <use xlink:href="#m3d0b87bde5" x="170.672727" y="95.327228" style="fill: #0000ff; stroke: #0000ff"/>
     <use xlink:href="#m3d0b87bde5" x="179.127273" y="130.274607" style="fill: #0000ff; stroke: #0000ff"/>
     <use xlink:href="#m3d0b87bde5" x="179.127273" y="165.992691" style="fill: #0000ff; stroke: #0000ff"/>
     <use xlink:href="#m3d0b87bde5" x="187.581818" y="196.134069" style="fill: #0000ff; stroke: #0000ff"/>
     <use xlink:href="#m3d0b87bde5" x="187.581818" y="216.130313" style="fill: #0000ff; stroke: #0000ff"/>
     <use xlink:href="#m3d0b87bde5" x="196.036364" y="226.967993" style="fill: #0000ff; stroke: #0000ff"/>
     <use xlink:href="#m3d0b87bde5" x="196.036364" y="228.965739" style="fill: #0000ff; stroke: #0000ff"/>
     <use xlink:href="#m3d0b87bde5" x="204.490909" y="219.246184" style="fill: #0000ff; stroke: #0000ff"/>
     <use xlink:href="#m3d0b87bde5" x="204.490909" y="193.516603" style="fill: #0000ff; stroke: #0000ff"/>
     <use xlink:href="#m3d0b87bde5" x="212.945455" y="159.637745" style="fill: #0000ff; stroke: #0000ff"/>
     <use xlink:href="#m3d0b87bde5" x="212.945455" y="124.650508" style="fill: #0000ff; stroke: #0000ff"/>
     <use xlink:href="#m3d0b87bde5" x="221.4" y="94.309589" style="fill: #0000ff; stroke: #0000ff"/>
     <use xlink:href="#m3d0b87bde5" x="221.4" y="71.010741" style="fill: #0000ff; stroke: #0000ff"/>
     <use xlink:href="#m3d0b87bde5" x="229.854545" y="59.050247" style="fill: #0000ff; stroke: #0000ff"/>
     <use xlink:href="#m3d0b87bde5" x="229.854545" y="53.666832" style="fill: #0000ff; stroke: #0000ff"/>
     <use xlink:href="#m3d0b87bde5" x="238.309091" y="57.281618" style="fill: #0000ff; stroke: #0000ff"/>
     <use xlink:href="#m3d0b87bde5" x="238.309091" y="76.74993" style="fill: #0000ff; stroke: #0000ff"/>
     <use xlink:href="#m3d0b87bde5" x="246.763636" y="104.973844" style="fill: #0000ff; stroke: #0000ff"/>
     <use xlink:href="#m3d0b87bde5" x="246.763636" y="134.40436" style="fill: #0000ff; stroke: #0000ff"/>
     <use xlink:href="#m3d0b87bde5" x="255.218182" y="162.509002" style="fill: #0000ff; stroke: #0000ff"/>
     <use xlink:href="#m3d0b87bde5" x="255.218182" y="189.115802" style="fill: #0000ff; stroke: #0000ff"/>
     <use xlink:href="#m3d0b87bde5" x="263.672727" y="209.287061" style="fill: #0000ff; stroke: #0000ff"/>
     <use xlink:href="#m3d0b87bde5" x="263.672727" y="223.808179" style="fill: #0000ff; stroke: #0000ff"/>
     <use xlink:href="#m3d0b87bde5" x="272.127273" y="230.928186" style="fill: #0000ff; stroke: #0000ff"/>
     <use xlink:href="#m3d0b87bde5" x="272.127273" y="229.552876" style="fill: #0000ff; stroke: #0000ff"/>
     <use xlink:href="#m3d0b87bde5" x="280.581818" y="211.941666" style="fill: #0000ff; stroke: #0000ff"/>
     <use xlink:href="#m3d0b87bde5" x="280.581818" y="177.589548" style="fill: #0000ff; stroke: #0000ff"/>
     <use xlink:href="#m3d0b87bde5" x="289.036364" y="138.737183" style="fill: #0000ff; stroke: #0000ff"/>
     <use xlink:href="#m3d0b87bde5" x="289.036364" y="99.567658" style="fill: #0000ff; stroke: #0000ff"/>
     <use xlink:href="#m3d0b87bde5" x="297.490909" y="69.054428" style="fill: #0000ff; stroke: #0000ff"/>
     <use xlink:href="#m3d0b87bde5" x="297.490909" y="51.238714" style="fill: #0000ff; stroke: #0000ff"/>
     <use xlink:href="#m3d0b87bde5" x="305.945455" y="44.443636" style="fill: #0000ff; stroke: #0000ff"/>
     <use xlink:href="#m3d0b87bde5" x="305.945455" y="47.370008" style="fill: #0000ff; stroke: #0000ff"/>
     <use xlink:href="#m3d0b87bde5" x="305.945455" y="66.979325" style="fill: #0000ff; stroke: #0000ff"/>
     <use xlink:href="#m3d0b87bde5" x="314.4" y="100.971928" style="fill: #0000ff; stroke: #0000ff"/>
     <use xlink:href="#m3d0b87bde5" x="322.854545" y="140.671524" style="fill: #0000ff; stroke: #0000ff"/>
     <use xlink:href="#m3d0b87bde5" x="322.854545" y="178.710582" style="fill: #0000ff; stroke: #0000ff"/>
     <use xlink:href="#m3d0b87bde5" x="331.309091" y="208.362434" style="fill: #0000ff; stroke: #0000ff"/>
     <use xlink:href="#m3d0b87bde5" x="331.309091" y="228.645224" style="fill: #0000ff; stroke: #0000ff"/>
     <use xlink:href="#m3d0b87bde5" x="339.763636" y="239.960653" style="fill: #0000ff; stroke: #0000ff"/>
     <use xlink:href="#m3d0b87bde5" x="339.763636" y="242.116364" style="fill: #0000ff; stroke: #0000ff"/>
     <use xlink:href="#m3d0b87bde5" x="339.763636" y="228.69006" style="fill: #0000ff; stroke: #0000ff"/>
     <use xlink:href="#m3d0b87bde5" x="348.218182" y="199.926904" style="fill: #0000ff; stroke: #0000ff"/>
     <use xlink:href="#m3d0b87bde5" x="348.218182" y="165.808352" style="fill: #0000ff; stroke: #0000ff"/>
     <use xlink:href="#m3d0b87bde5" x="356.672727" y="128.990709" style="fill: #0000ff; stroke: #0000ff"/>
    </g>
   </g>
   <g id="line2d_30">
    <path d="M 77.672727 129.792775 
L 80.930986 104.971837 
L 83.004423 90.621037 
L 84.781654 79.679368 
L 86.262681 71.737192 
L 87.743707 65.016699 
L 88.928529 60.601547 
L 90.11335 57.096331 
L 91.001966 55.089139 
L 91.890581 53.629557 
L 92.482992 52.965527 
L 93.075403 52.55104 
L 93.667813 52.387287 
L 94.260224 52.474736 
L 94.852634 52.813137 
L 95.445045 53.401519 
L 96.037456 54.238195 
L 96.926072 55.95332 
L 97.814687 58.210479 
L 98.703303 60.995115 
L 99.888124 65.496961 
L 101.072946 70.852631 
L 102.553972 78.653511 
L 104.331204 89.450066 
L 106.404641 103.669908 
L 109.070489 123.746973 
L 116.475621 180.672751 
L 118.549058 194.417608 
L 120.32629 204.697712 
L 121.807316 212.00114 
L 122.992138 216.921281 
L 124.176959 220.959588 
L 125.065575 223.381374 
L 125.954191 225.265252 
L 126.842806 226.599071 
L 127.435217 227.178299 
L 128.027628 227.507497 
L 128.620038 227.585722 
L 129.212449 227.412748 
L 129.804859 226.989073 
L 130.39727 226.31591 
L 131.285886 224.842795 
L 132.174502 222.822346 
L 133.063118 220.267594 
L 134.247939 216.059088 
L 135.43276 210.97863 
L 136.913787 203.49149 
L 138.394813 194.867621 
L 140.172045 183.237116 
L 142.541687 166.052837 
L 146.096151 138.303518 
L 150.243025 106.348395 
L 152.612667 89.921506 
L 154.389899 79.065983 
L 155.870925 71.207774 
L 157.351952 64.580722 
L 158.536773 60.246028 
L 159.721594 56.825345 
L 160.61021 54.883646 
L 161.498826 53.490882 
L 162.091237 52.871921 
L 162.683647 52.502772 
L 163.276058 52.384494 
L 163.868468 52.517428 
L 164.460879 52.90119 
L 165.05329 53.534681 
L 165.941906 54.948991 
L 166.830521 56.911815 
L 167.719137 59.410491 
L 168.903959 63.547266 
L 170.08878 68.560213 
L 171.569806 75.970074 
L 173.050833 84.525847 
L 174.828064 96.088461 
L 177.197707 113.208465 
L 180.75217 140.923027 
L 184.899044 172.9342 
L 187.268687 189.437352 
L 189.045919 200.368784 
L 190.526945 208.300968 
L 192.007972 215.010333 
L 193.192793 219.415895 
L 194.377614 222.911031 
L 195.26623 224.910408 
L 196.154846 226.362015 
L 196.747256 227.020666 
L 197.339667 227.429738 
L 197.932078 227.58806 
L 198.524488 227.495177 
L 199.116899 227.151356 
L 199.709309 226.557582 
L 200.30172 225.715558 
L 201.190336 223.99253 
L 202.078952 221.727651 
L 203.263773 217.890678 
L 204.448594 213.160759 
L 205.929621 206.076176 
L 207.410647 197.808596 
L 209.187879 186.535654 
L 211.261316 171.890606 
L 214.223369 149.166178 
L 219.851269 105.565513 
L 221.924707 91.156557 
L 223.701938 80.150011 
L 225.182965 72.144431 
L 226.663991 65.353243 
L 227.848812 60.877133 
L 229.033634 57.307801 
L 229.92225 55.25089 
L 230.810865 53.740545 
L 231.403276 53.042255 
L 231.995687 52.593288 
L 232.588097 52.394934 
L 233.180508 52.44776 
L 233.772918 52.751615 
L 234.365329 53.305628 
L 234.95774 54.10821 
L 235.846355 55.772922 
L 236.734971 57.980833 
L 237.623587 60.717702 
L 238.808408 65.158693 
L 239.99323 70.457385 
L 241.474256 78.193486 
L 243.251488 88.923267 
L 245.324925 103.082459 
L 247.990773 123.112002 
L 255.395905 180.098988 
L 257.469342 193.909465 
L 259.246574 204.260089 
L 260.7276 211.63098 
L 261.912422 216.609925 
L 263.097243 220.710604 
L 263.985859 223.181083 
L 264.874474 225.114946 
L 265.76309 226.499719 
L 266.355501 227.113293 
L 266.947912 227.477024 
L 267.540322 227.589868 
L 268.132733 227.451502 
L 268.725143 227.062323 
L 269.317554 226.423447 
L 270.20617 225.001153 
L 271.094786 223.030504 
L 271.983402 220.52421 
L 273.168223 216.377685 
L 274.353044 211.355558 
L 275.83407 203.935182 
L 277.315097 195.370134 
L 279.092329 183.79826 
L 281.461971 166.669463 
L 285.016435 138.950067 
L 289.163309 106.946361 
L 291.532951 90.453485 
L 293.310183 79.532304 
L 294.791209 71.610122 
L 296.272236 64.911896 
L 297.457057 60.515929 
L 298.641878 57.030879 
L 299.530494 55.039318 
L 300.41911 53.595687 
L 301.011521 52.942418 
L 301.603931 52.53876 
L 302.196342 52.38587 
L 302.788752 52.484187 
L 303.381163 52.833429 
L 303.973574 53.432593 
L 304.565984 54.279963 
L 305.4546 56.010893 
L 306.343216 58.283487 
L 307.528037 62.130373 
L 308.712858 66.869671 
L 310.193885 73.965067 
L 311.674911 82.242266 
L 313.452143 93.524936 
L 315.52558 108.178516 
L 318.487633 130.909341 
L 324.115534 174.502372 
L 326.188971 188.902252 
L 327.966203 199.898654 
L 329.447229 207.894312 
L 330.928256 214.674428 
L 332.113077 219.140987 
L 333.297898 222.700269 
L 334.186514 224.749383 
L 335.07513 226.251765 
L 335.66754 226.944681 
L 336.259951 227.388237 
L 336.852361 227.581162 
L 337.444772 227.522901 
L 338.037183 227.213623 
L 338.629593 226.654213 
L 339.222004 225.846277 
L 340.11062 224.173646 
L 340.999236 221.957997 
L 341.887851 219.213622 
L 343.072673 214.763063 
L 344.257494 209.455409 
L 345.73852 201.709112 
L 347.515752 190.968812 
L 349.589189 176.80005 
L 352.255037 156.762976 
L 359.660169 99.785391 
L 361.733606 85.985164 
L 363.510838 75.645572 
L 364.991865 68.285242 
L 366.176686 63.315509 
L 367.361507 59.224605 
L 368.250123 56.76176 
L 369.138739 54.835735 
L 370.027355 53.458955 
L 370.619765 52.850769 
L 371.212176 52.492458 
L 371.804586 52.385047 
L 372.396997 52.528845 
L 372.989408 52.92344 
L 373.581818 53.567699 
L 373.581818 53.567699 
" clip-path="url(#p58511128fd)" style="fill: none; stroke: #000000; stroke-width: 1.5; stroke-linecap: square"/>
   </g>
   <g id="line2d_31">
    <defs>
     <path id="m0330500a9f" d="M -3 3 
L 3 -3 
M -3 -3 
L 3 3 
" style="stroke: #a52a2a"/>
    </defs>
    <g clip-path="url(#p58511128fd)">
     <use xlink:href="#m0330500a9f" x="69.218182" y="198.417483" style="fill: #a52a2a; stroke: #a52a2a"/>
     <use xlink:href="#m0330500a9f" x="77.672727" y="185.974551" style="fill: #a52a2a; stroke: #a52a2a"/>
     <use xlink:href="#m0330500a9f" x="77.672727" y="167.912665" style="fill: #a52a2a; stroke: #a52a2a"/>
     <use xlink:href="#m0330500a9f" x="86.127273" y="149.706753" style="fill: #a52a2a; stroke: #a52a2a"/>
     <use xlink:href="#m0330500a9f" x="86.127273" y="131.004674" style="fill: #a52a2a; stroke: #a52a2a"/>
     <use xlink:href="#m0330500a9f" x="94.581818" y="115.853034" style="fill: #a52a2a; stroke: #a52a2a"/>
     <use xlink:href="#m0330500a9f" x="94.581818" y="106.86362" style="fill: #a52a2a; stroke: #a52a2a"/>
     <use xlink:href="#m0330500a9f" x="103.036364" y="106.545704" style="fill: #a52a2a; stroke: #a52a2a"/>
     <use xlink:href="#m0330500a9f" x="103.036364" y="114.768694" style="fill: #a52a2a; stroke: #a52a2a"/>
     <use xlink:href="#m0330500a9f" x="111.490909" y="128.526306" style="fill: #a52a2a; stroke: #a52a2a"/>
     <use xlink:href="#m0330500a9f" x="111.490909" y="146.935644" style="fill: #a52a2a; stroke: #a52a2a"/>
     <use xlink:href="#m0330500a9f" x="119.945455" y="167.993299" style="fill: #a52a2a; stroke: #a52a2a"/>
     <use xlink:href="#m0330500a9f" x="119.945455" y="188.168727" style="fill: #a52a2a; stroke: #a52a2a"/>
     <use xlink:href="#m0330500a9f" x="128.4" y="204.458813" style="fill: #a52a2a; stroke: #a52a2a"/>
     <use xlink:href="#m0330500a9f" x="128.4" y="214.929069" style="fill: #a52a2a; stroke: #a52a2a"/>
     <use xlink:href="#m0330500a9f" x="136.854545" y="217.284968" style="fill: #a52a2a; stroke: #a52a2a"/>
     <use xlink:href="#m0330500a9f" x="136.854545" y="211.528568" style="fill: #a52a2a; stroke: #a52a2a"/>
     <use xlink:href="#m0330500a9f" x="136.854545" y="199.074348" style="fill: #a52a2a; stroke: #a52a2a"/>
     <use xlink:href="#m0330500a9f" x="145.309091" y="183.263058" style="fill: #a52a2a; stroke: #a52a2a"/>
     <use xlink:href="#m0330500a9f" x="145.309091" y="167.609042" style="fill: #a52a2a; stroke: #a52a2a"/>
     <use xlink:href="#m0330500a9f" x="153.763636" y="151.209478" style="fill: #a52a2a; stroke: #a52a2a"/>
     <use xlink:href="#m0330500a9f" x="153.763636" y="137.509254" style="fill: #a52a2a; stroke: #a52a2a"/>
     <use xlink:href="#m0330500a9f" x="162.218182" y="126.161165" style="fill: #a52a2a; stroke: #a52a2a"/>
     <use xlink:href="#m0330500a9f" x="170.672727" y="119.453642" style="fill: #a52a2a; stroke: #a52a2a"/>
     <use xlink:href="#m0330500a9f" x="170.672727" y="118.545707" style="fill: #a52a2a; stroke: #a52a2a"/>
     <use xlink:href="#m0330500a9f" x="170.672727" y="124.151488" style="fill: #a52a2a; stroke: #a52a2a"/>
     <use xlink:href="#m0330500a9f" x="179.127273" y="135.241045" style="fill: #a52a2a; stroke: #a52a2a"/>
     <use xlink:href="#m0330500a9f" x="179.127273" y="151.637835" style="fill: #a52a2a; stroke: #a52a2a"/>
     <use xlink:href="#m0330500a9f" x="187.581818" y="170.19539" style="fill: #a52a2a; stroke: #a52a2a"/>
     <use xlink:href="#m0330500a9f" x="187.581818" y="188.182111" style="fill: #a52a2a; stroke: #a52a2a"/>
     <use xlink:href="#m0330500a9f" x="196.036364" y="203.095735" style="fill: #a52a2a; stroke: #a52a2a"/>
     <use xlink:href="#m0330500a9f" x="196.036364" y="210.616619" style="fill: #a52a2a; stroke: #a52a2a"/>
     <use xlink:href="#m0330500a9f" x="204.490909" y="211.675009" style="fill: #a52a2a; stroke: #a52a2a"/>
     <use xlink:href="#m0330500a9f" x="204.490909" y="204.863423" style="fill: #a52a2a; stroke: #a52a2a"/>
     <use xlink:href="#m0330500a9f" x="212.945455" y="192.736286" style="fill: #a52a2a; stroke: #a52a2a"/>
     <use xlink:href="#m0330500a9f" x="212.945455" y="176.920404" style="fill: #a52a2a; stroke: #a52a2a"/>
     <use xlink:href="#m0330500a9f" x="221.4" y="161.353525" style="fill: #a52a2a; stroke: #a52a2a"/>
     <use xlink:href="#m0330500a9f" x="221.4" y="146.506329" style="fill: #a52a2a; stroke: #a52a2a"/>
     <use xlink:href="#m0330500a9f" x="229.854545" y="134.909956" style="fill: #a52a2a; stroke: #a52a2a"/>
     <use xlink:href="#m0330500a9f" x="229.854545" y="127.052198" style="fill: #a52a2a; stroke: #a52a2a"/>
     <use xlink:href="#m0330500a9f" x="238.309091" y="123.932522" style="fill: #a52a2a; stroke: #a52a2a"/>
     <use xlink:href="#m0330500a9f" x="238.309091" y="126.771249" style="fill: #a52a2a; stroke: #a52a2a"/>
     <use xlink:href="#m0330500a9f" x="246.763636" y="134.413568" style="fill: #a52a2a; stroke: #a52a2a"/>
     <use xlink:href="#m0330500a9f" x="246.763636" y="146.002951" style="fill: #a52a2a; stroke: #a52a2a"/>
     <use xlink:href="#m0330500a9f" x="255.218182" y="159.784098" style="fill: #a52a2a; stroke: #a52a2a"/>
     <use xlink:href="#m0330500a9f" x="255.218182" y="173.937588" style="fill: #a52a2a; stroke: #a52a2a"/>
     <use xlink:href="#m0330500a9f" x="263.672727" y="189.768235" style="fill: #a52a2a; stroke: #a52a2a"/>
     <use xlink:href="#m0330500a9f" x="263.672727" y="203.158883" style="fill: #a52a2a; stroke: #a52a2a"/>
     <use xlink:href="#m0330500a9f" x="272.127273" y="213.450399" style="fill: #a52a2a; stroke: #a52a2a"/>
     <use xlink:href="#m0330500a9f" x="272.127273" y="218.173105" style="fill: #a52a2a; stroke: #a52a2a"/>
     <use xlink:href="#m0330500a9f" x="280.581818" y="214.862271" style="fill: #a52a2a; stroke: #a52a2a"/>
     <use xlink:href="#m0330500a9f" x="280.581818" y="203.903387" style="fill: #a52a2a; stroke: #a52a2a"/>
     <use xlink:href="#m0330500a9f" x="289.036364" y="187.749984" style="fill: #a52a2a; stroke: #a52a2a"/>
     <use xlink:href="#m0330500a9f" x="289.036364" y="167.171589" style="fill: #a52a2a; stroke: #a52a2a"/>
     <use xlink:href="#m0330500a9f" x="297.490909" y="145.990744" style="fill: #a52a2a; stroke: #a52a2a"/>
     <use xlink:href="#m0330500a9f" x="297.490909" y="127.249083" style="fill: #a52a2a; stroke: #a52a2a"/>
     <use xlink:href="#m0330500a9f" x="305.945455" y="113.141725" style="fill: #a52a2a; stroke: #a52a2a"/>
     <use xlink:href="#m0330500a9f" x="305.945455" y="107.766359" style="fill: #a52a2a; stroke: #a52a2a"/>
     <use xlink:href="#m0330500a9f" x="305.945455" y="111.30342" style="fill: #a52a2a; stroke: #a52a2a"/>
     <use xlink:href="#m0330500a9f" x="314.4" y="121.883193" style="fill: #a52a2a; stroke: #a52a2a"/>
     <use xlink:href="#m0330500a9f" x="322.854545" y="138.429738" style="fill: #a52a2a; stroke: #a52a2a"/>
     <use xlink:href="#m0330500a9f" x="322.854545" y="158.46596" style="fill: #a52a2a; stroke: #a52a2a"/>
     <use xlink:href="#m0330500a9f" x="331.309091" y="178.945367" style="fill: #a52a2a; stroke: #a52a2a"/>
     <use xlink:href="#m0330500a9f" x="331.309091" y="196.728108" style="fill: #a52a2a; stroke: #a52a2a"/>
     <use xlink:href="#m0330500a9f" x="339.763636" y="209.367674" style="fill: #a52a2a; stroke: #a52a2a"/>
     <use xlink:href="#m0330500a9f" x="339.763636" y="215.268393" style="fill: #a52a2a; stroke: #a52a2a"/>
     <use xlink:href="#m0330500a9f" x="339.763636" y="213.842842" style="fill: #a52a2a; stroke: #a52a2a"/>
     <use xlink:href="#m0330500a9f" x="348.218182" y="205.314707" style="fill: #a52a2a; stroke: #a52a2a"/>
     <use xlink:href="#m0330500a9f" x="348.218182" y="192.447218" style="fill: #a52a2a; stroke: #a52a2a"/>
     <use xlink:href="#m0330500a9f" x="356.672727" y="176.018624" style="fill: #a52a2a; stroke: #a52a2a"/>
    </g>
   </g>
   <g id="line2d_32">
    <path d="M 77.672727 174.254229 
L 85.966476 139.653625 
L 88.039913 132.342463 
L 89.817144 126.925228 
L 91.298171 123.116451 
L 92.482992 120.580579 
L 93.667813 118.530495 
L 94.852634 116.989392 
L 95.74125 116.178293 
L 96.629866 115.668588 
L 97.518482 115.463522 
L 98.407098 115.564401 
L 99.295714 115.970583 
L 100.18433 116.679481 
L 101.072946 117.686583 
L 101.961562 118.985477 
L 103.146383 121.156681 
L 104.331204 123.807156 
L 105.81223 127.748054 
L 107.293257 132.320964 
L 109.070489 138.528255 
L 111.143926 146.561185 
L 114.105979 158.980733 
L 119.733879 182.716651 
L 122.103522 191.590573 
L 123.880753 197.434714 
L 125.36178 201.65186 
L 126.842806 205.195345 
L 128.027628 207.5026 
L 129.212449 209.312294 
L 130.101065 210.330505 
L 130.989681 211.050721 
L 131.878296 211.468354 
L 132.766912 211.580748 
L 133.655528 211.387186 
L 134.544144 210.8889 
L 135.43276 210.089063 
L 136.321376 208.992766 
L 137.506197 207.082208 
L 138.691018 204.678845 
L 139.875839 201.809866 
L 141.356866 197.618788 
L 143.134098 191.8016 
L 145.207535 184.117576 
L 147.873382 173.231804 
L 155.57472 140.976569 
L 157.648157 133.507461 
L 159.425389 127.922535 
L 160.906416 123.954445 
L 162.091237 121.280319 
L 163.276058 119.084065 
L 164.460879 117.390528 
L 165.349495 116.46203 
L 166.238111 115.83312 
L 167.126727 115.507801 
L 168.015343 115.488145 
L 168.903959 115.774278 
L 169.792574 116.364376 
L 170.68119 117.254684 
L 171.569806 118.439534 
L 172.754627 120.464208 
L 173.939449 122.975987 
L 175.420475 126.756912 
L 176.901502 131.187359 
L 178.678733 137.250329 
L 180.75217 145.156161 
L 183.714223 157.479153 
L 189.934535 183.671335 
L 192.007972 191.401744 
L 193.785203 197.269769 
L 195.26623 201.51005 
L 196.747256 205.079177 
L 197.932078 207.408445 
L 199.116899 209.241218 
L 200.005515 210.277281 
L 200.89413 211.015687 
L 201.782746 211.451734 
L 202.671362 211.582646 
L 203.559978 211.407591 
L 204.448594 210.927683 
L 205.33721 210.145976 
L 206.225826 209.067447 
L 207.410647 207.179821 
L 208.595468 204.798285 
L 209.780289 201.949783 
L 211.261316 197.78205 
L 213.038548 191.989034 
L 215.111985 184.327152 
L 217.777832 173.459121 
L 225.775375 140.057859 
L 227.848812 132.697367 
L 229.626044 127.228004 
L 231.107071 123.369845 
L 232.291892 120.7912 
L 233.476713 118.695959 
L 234.661534 117.107827 
L 235.55015 116.260548 
L 236.438766 115.71414 
L 237.327382 115.47208 
L 238.215998 115.535911 
L 239.104614 115.905226 
L 239.99323 116.577673 
L 240.881845 117.548972 
L 241.770461 118.812939 
L 242.955283 120.939321 
L 244.140104 123.547432 
L 245.62113 127.43956 
L 247.102157 131.96915 
L 248.879388 138.132721 
L 250.952826 146.12742 
L 253.914879 158.518588 
L 259.542779 182.28997 
L 261.912422 191.212263 
L 263.689653 197.104035 
L 265.17068 201.367354 
L 266.651706 204.962038 
L 267.836527 207.313266 
L 269.021349 209.169075 
L 269.909965 210.222965 
L 270.79858 210.979544 
L 271.687196 211.433994 
L 272.575812 211.583423 
L 273.464428 211.426879 
L 274.353044 210.965359 
L 275.24166 210.201801 
L 276.130276 209.141065 
L 277.315097 207.276415 
L 278.499918 204.916762 
L 279.684739 202.088803 
L 281.165766 197.944511 
L 282.942998 192.175803 
L 285.016435 184.536242 
L 287.682282 173.686207 
L 295.679825 140.2608 
L 297.753262 132.8759 
L 299.530494 127.380665 
L 301.011521 123.49795 
L 302.196342 120.898008 
L 303.381163 118.780262 
L 304.565984 117.168671 
L 305.4546 116.303331 
L 306.343216 115.73859 
L 307.231832 115.478042 
L 308.120448 115.523346 
L 309.009064 115.874214 
L 309.897679 116.528412 
L 310.786295 117.481775 
L 311.674911 118.728235 
L 312.859732 120.83213 
L 314.044554 123.418968 
L 315.52558 127.286574 
L 317.006607 131.794346 
L 318.783838 137.935842 
L 320.857275 145.911144 
L 323.819328 158.287688 
L 329.447229 182.075969 
L 331.816871 191.022136 
L 333.594103 196.937518 
L 335.07513 201.223774 
L 336.556156 204.843932 
L 337.740977 207.217064 
L 338.925799 209.095866 
L 339.814414 210.167559 
L 340.70303 210.942293 
L 341.591646 211.415136 
L 342.480262 211.583078 
L 343.368878 211.445049 
L 344.257494 211.001927 
L 345.14611 210.256536 
L 346.034726 209.213618 
L 346.923342 207.879814 
L 348.108163 205.663856 
L 349.292984 202.971139 
L 350.77401 198.981695 
L 352.255037 194.365764 
L 354.032269 188.115206 
L 356.401911 178.838306 
L 359.956375 163.766914 
L 364.399454 145.073718 
L 366.769096 136.115692 
L 368.546328 130.188558 
L 370.027355 125.890871 
L 371.508381 122.258007 
L 372.693202 119.873943 
L 373.581818 118.408673 
L 373.581818 118.408673 
" clip-path="url(#p58511128fd)" style="fill: none; stroke: #ff0000; stroke-width: 1.5; stroke-linecap: square"/>
   </g>
   <g id="patch_3">
    <path d="M 54 252 
L 54 34.56 
" style="fill: none; stroke: #000000; stroke-width: 0.8; stroke-linejoin: miter; stroke-linecap: square"/>
   </g>
   <g id="patch_4">
    <path d="M 388.8 252 
L 388.8 34.56 
" style="fill: none; stroke: #000000; stroke-width: 0.8; stroke-linejoin: miter; stroke-linecap: square"/>
   </g>
   <g id="patch_5">
    <path d="M 54 252 
L 388.8 252 
" style="fill: none; stroke: #000000; stroke-width: 0.8; stroke-linejoin: miter; stroke-linecap: square"/>
   </g>
   <g id="patch_6">
    <path d="M 54 34.56 
L 388.8 34.56 
" style="fill: none; stroke: #000000; stroke-width: 0.8; stroke-linejoin: miter; stroke-linecap: square"/>
   </g>
   <g id="text_17">
    <!-- Components' angular displacements under driving force -->
    <g transform="translate(52.3425 28.56)scale(0.12 -0.12)">
     <defs>
      <path id="DejaVuSans-43" d="M 4122 4306 
L 4122 3641 
Q 3803 3938 3442 4084 
Q 3081 4231 2675 4231 
Q 1875 4231 1450 3742 
Q 1025 3253 1025 2328 
Q 1025 1406 1450 917 
Q 1875 428 2675 428 
Q 3081 428 3442 575 
Q 3803 722 4122 1019 
L 4122 359 
Q 3791 134 3420 21 
Q 3050 -91 2638 -91 
Q 1578 -91 968 557 
Q 359 1206 359 2328 
Q 359 3453 968 4101 
Q 1578 4750 2638 4750 
Q 3056 4750 3426 4639 
Q 3797 4528 4122 4306 
z
" transform="scale(0.015625)"/>
      <path id="DejaVuSans-6f" d="M 1959 3097 
Q 1497 3097 1228 2736 
Q 959 2375 959 1747 
Q 959 1119 1226 758 
Q 1494 397 1959 397 
Q 2419 397 2687 759 
Q 2956 1122 2956 1747 
Q 2956 2369 2687 2733 
Q 2419 3097 1959 3097 
z
M 1959 3584 
Q 2709 3584 3137 3096 
Q 3566 2609 3566 1747 
Q 3566 888 3137 398 
Q 2709 -91 1959 -91 
Q 1206 -91 779 398 
Q 353 888 353 1747 
Q 353 2609 779 3096 
Q 1206 3584 1959 3584 
z
" transform="scale(0.015625)"/>
      <path id="DejaVuSans-27" d="M 1147 4666 
L 1147 2931 
L 616 2931 
L 616 4666 
L 1147 4666 
z
" transform="scale(0.015625)"/>
      <path id="DejaVuSans-76" d="M 191 3500 
L 800 3500 
L 1894 563 
L 2988 3500 
L 3597 3500 
L 2284 0 
L 1503 0 
L 191 3500 
z
" transform="scale(0.015625)"/>
      <path id="DejaVuSans-66" d="M 2375 4863 
L 2375 4384 
L 1825 4384 
Q 1516 4384 1395 4259 
Q 1275 4134 1275 3809 
L 1275 3500 
L 2222 3500 
L 2222 3053 
L 1275 3053 
L 1275 0 
L 697 0 
L 697 3053 
L 147 3053 
L 147 3500 
L 697 3500 
L 697 3744 
Q 697 4328 969 4595 
Q 1241 4863 1831 4863 
L 2375 4863 
z
" transform="scale(0.015625)"/>
     </defs>
     <use xlink:href="#DejaVuSans-43"/>
     <use xlink:href="#DejaVuSans-6f" x="69.824219"/>
     <use xlink:href="#DejaVuSans-6d" x="131.005859"/>
     <use xlink:href="#DejaVuSans-70" x="228.417969"/>
     <use xlink:href="#DejaVuSans-6f" x="291.894531"/>
     <use xlink:href="#DejaVuSans-6e" x="353.076172"/>
     <use xlink:href="#DejaVuSans-65" x="416.455078"/>
     <use xlink:href="#DejaVuSans-6e" x="477.978516"/>
     <use xlink:href="#DejaVuSans-74" x="541.357422"/>
     <use xlink:href="#DejaVuSans-73" x="580.566406"/>
     <use xlink:href="#DejaVuSans-27" x="632.666016"/>
     <use xlink:href="#DejaVuSans-20" x="660.15625"/>
     <use xlink:href="#DejaVuSans-61" x="691.943359"/>
     <use xlink:href="#DejaVuSans-6e" x="753.222656"/>
     <use xlink:href="#DejaVuSans-67" x="816.601562"/>
     <use xlink:href="#DejaVuSans-75" x="880.078125"/>
     <use xlink:href="#DejaVuSans-6c" x="943.457031"/>
     <use xlink:href="#DejaVuSans-61" x="971.240234"/>
     <use xlink:href="#DejaVuSans-72" x="1032.519531"/>
     <use xlink:href="#DejaVuSans-20" x="1073.632812"/>
     <use xlink:href="#DejaVuSans-64" x="1105.419922"/>
     <use xlink:href="#DejaVuSans-69" x="1168.896484"/>
     <use xlink:href="#DejaVuSans-73" x="1196.679688"/>
     <use xlink:href="#DejaVuSans-70" x="1248.779297"/>
     <use xlink:href="#DejaVuSans-6c" x="1312.255859"/>
     <use xlink:href="#DejaVuSans-61" x="1340.039062"/>
     <use xlink:href="#DejaVuSans-63" x="1401.318359"/>
     <use xlink:href="#DejaVuSans-65" x="1456.298828"/>
     <use xlink:href="#DejaVuSans-6d" x="1517.822266"/>
     <use xlink:href="#DejaVuSans-65" x="1615.234375"/>
     <use xlink:href="#DejaVuSans-6e" x="1676.757812"/>
     <use xlink:href="#DejaVuSans-74" x="1740.136719"/>
     <use xlink:href="#DejaVuSans-73" x="1779.345703"/>
     <use xlink:href="#DejaVuSans-20" x="1831.445312"/>
     <use xlink:href="#DejaVuSans-75" x="1863.232422"/>
     <use xlink:href="#DejaVuSans-6e" x="1926.611328"/>
     <use xlink:href="#DejaVuSans-64" x="1989.990234"/>
     <use xlink:href="#DejaVuSans-65" x="2053.466797"/>
     <use xlink:href="#DejaVuSans-72" x="2114.990234"/>
     <use xlink:href="#DejaVuSans-20" x="2156.103516"/>
     <use xlink:href="#DejaVuSans-64" x="2187.890625"/>
     <use xlink:href="#DejaVuSans-72" x="2251.367188"/>
     <use xlink:href="#DejaVuSans-69" x="2292.480469"/>
     <use xlink:href="#DejaVuSans-76" x="2320.263672"/>
     <use xlink:href="#DejaVuSans-69" x="2379.443359"/>
     <use xlink:href="#DejaVuSans-6e" x="2407.226562"/>
     <use xlink:href="#DejaVuSans-67" x="2470.605469"/>
     <use xlink:href="#DejaVuSans-20" x="2534.082031"/>
     <use xlink:href="#DejaVuSans-66" x="2565.869141"/>
     <use xlink:href="#DejaVuSans-6f" x="2601.074219"/>
     <use xlink:href="#DejaVuSans-72" x="2662.255859"/>
     <use xlink:href="#DejaVuSans-63" x="2701.119141"/>
     <use xlink:href="#DejaVuSans-65" x="2756.099609"/>
    </g>
   </g>
   <g id="legend_1">
    <g id="patch_7">
     <path d="M 307.771719 81.25875 
L 383.9 81.25875 
Q 385.3 81.25875 385.3 79.85875 
L 385.3 39.46 
Q 385.3 38.06 383.9 38.06 
L 307.771719 38.06 
Q 306.371719 38.06 306.371719 39.46 
L 306.371719 79.85875 
Q 306.371719 81.25875 307.771719 81.25875 
z
" style="fill: #ffffff; opacity: 0.8; stroke: #cccccc; stroke-linejoin: miter"/>
    </g>
    <g id="line2d_33">
     <g>
      <use xlink:href="#m3d0b87bde5" x="316.171719" y="43.728906" style="fill: #0000ff; stroke: #0000ff"/>
     </g>
    </g>
    <g id="text_18">
     <!-- Casing Data -->
     <g transform="translate(328.771719 46.178906)scale(0.07 -0.07)">
      <defs>
       <path id="DejaVuSans-44" d="M 1259 4147 
L 1259 519 
L 2022 519 
Q 2988 519 3436 956 
Q 3884 1394 3884 2338 
Q 3884 3275 3436 3711 
Q 2988 4147 2022 4147 
L 1259 4147 
z
M 628 4666 
L 1925 4666 
Q 3281 4666 3915 4102 
Q 4550 3538 4550 2338 
Q 4550 1131 3912 565 
Q 3275 0 1925 0 
L 628 0 
L 628 4666 
z
" transform="scale(0.015625)"/>
      </defs>
      <use xlink:href="#DejaVuSans-43"/>
      <use xlink:href="#DejaVuSans-61" x="69.824219"/>
      <use xlink:href="#DejaVuSans-73" x="131.103516"/>
      <use xlink:href="#DejaVuSans-69" x="183.203125"/>
      <use xlink:href="#DejaVuSans-6e" x="210.986328"/>
      <use xlink:href="#DejaVuSans-67" x="274.365234"/>
      <use xlink:href="#DejaVuSans-20" x="337.841797"/>
      <use xlink:href="#DejaVuSans-44" x="369.628906"/>
      <use xlink:href="#DejaVuSans-61" x="446.630859"/>
      <use xlink:href="#DejaVuSans-74" x="507.910156"/>
      <use xlink:href="#DejaVuSans-61" x="547.119141"/>
     </g>
    </g>
    <g id="line2d_34">
     <path d="M 309.171719 54.003594 
L 316.171719 54.003594 
L 323.171719 54.003594 
" style="fill: none; stroke: #000000; stroke-width: 1.5; stroke-linecap: square"/>
    </g>
    <g id="text_19">
     <!-- Casing Fit -->
     <g transform="translate(328.771719 56.453594)scale(0.07 -0.07)">
      <defs>
       <path id="DejaVuSans-46" d="M 628 4666 
L 3309 4666 
L 3309 4134 
L 1259 4134 
L 1259 2759 
L 3109 2759 
L 3109 2228 
L 1259 2228 
L 1259 0 
L 628 0 
L 628 4666 
z
" transform="scale(0.015625)"/>
      </defs>
      <use xlink:href="#DejaVuSans-43"/>
      <use xlink:href="#DejaVuSans-61" x="69.824219"/>
      <use xlink:href="#DejaVuSans-73" x="131.103516"/>
      <use xlink:href="#DejaVuSans-69" x="183.203125"/>
      <use xlink:href="#DejaVuSans-6e" x="210.986328"/>
      <use xlink:href="#DejaVuSans-67" x="274.365234"/>
      <use xlink:href="#DejaVuSans-20" x="337.841797"/>
      <use xlink:href="#DejaVuSans-46" x="369.628906"/>
      <use xlink:href="#DejaVuSans-69" x="419.898438"/>
      <use xlink:href="#DejaVuSans-74" x="447.681641"/>
     </g>
    </g>
    <g id="line2d_35">
     <g>
      <use xlink:href="#m0330500a9f" x="316.171719" y="64.278281" style="fill: #a52a2a; stroke: #a52a2a"/>
     </g>
    </g>
    <g id="text_20">
     <!-- Pendulum Data -->
     <g transform="translate(328.771719 66.728281)scale(0.07 -0.07)">
      <defs>
       <path id="DejaVuSans-50" d="M 1259 4147 
L 1259 2394 
L 2053 2394 
Q 2494 2394 2734 2622 
Q 2975 2850 2975 3272 
Q 2975 3691 2734 3919 
Q 2494 4147 2053 4147 
L 1259 4147 
z
M 628 4666 
L 2053 4666 
Q 2838 4666 3239 4311 
Q 3641 3956 3641 3272 
Q 3641 2581 3239 2228 
Q 2838 1875 2053 1875 
L 1259 1875 
L 1259 0 
L 628 0 
L 628 4666 
z
" transform="scale(0.015625)"/>
      </defs>
      <use xlink:href="#DejaVuSans-50"/>
      <use xlink:href="#DejaVuSans-65" x="56.677734"/>
      <use xlink:href="#DejaVuSans-6e" x="118.201172"/>
      <use xlink:href="#DejaVuSans-64" x="181.580078"/>
      <use xlink:href="#DejaVuSans-75" x="245.056641"/>
      <use xlink:href="#DejaVuSans-6c" x="308.435547"/>
      <use xlink:href="#DejaVuSans-75" x="336.21875"/>
      <use xlink:href="#DejaVuSans-6d" x="399.597656"/>
      <use xlink:href="#DejaVuSans-20" x="497.009766"/>
      <use xlink:href="#DejaVuSans-44" x="528.796875"/>
      <use xlink:href="#DejaVuSans-61" x="605.798828"/>
      <use xlink:href="#DejaVuSans-74" x="667.078125"/>
      <use xlink:href="#DejaVuSans-61" x="706.287109"/>
     </g>
    </g>
    <g id="line2d_36">
     <path d="M 309.171719 74.552969 
L 316.171719 74.552969 
L 323.171719 74.552969 
" style="fill: none; stroke: #ff0000; stroke-width: 1.5; stroke-linecap: square"/>
    </g>
    <g id="text_21">
     <!-- Pendulum Fit -->
     <g transform="translate(328.771719 77.002969)scale(0.07 -0.07)">
      <use xlink:href="#DejaVuSans-50"/>
      <use xlink:href="#DejaVuSans-65" x="56.677734"/>
      <use xlink:href="#DejaVuSans-6e" x="118.201172"/>
      <use xlink:href="#DejaVuSans-64" x="181.580078"/>
      <use xlink:href="#DejaVuSans-75" x="245.056641"/>
      <use xlink:href="#DejaVuSans-6c" x="308.435547"/>
      <use xlink:href="#DejaVuSans-75" x="336.21875"/>
      <use xlink:href="#DejaVuSans-6d" x="399.597656"/>
      <use xlink:href="#DejaVuSans-20" x="497.009766"/>
      <use xlink:href="#DejaVuSans-46" x="528.796875"/>
      <use xlink:href="#DejaVuSans-69" x="579.066406"/>
      <use xlink:href="#DejaVuSans-74" x="606.849609"/>
     </g>
    </g>
   </g>
  </g>
 </g>
 <defs>
  <clipPath id="p58511128fd">
   <rect x="54" y="34.56" width="334.8" height="217.44"/>
  </clipPath>
 </defs>
</svg>
